<mxfile host="app.diagrams.net" modified="2021-05-31T05:28:00.529Z" agent="5.0 (Windows NT 10.0; Win64; x64) AppleWebKit/537.36 (KHTML, like Gecko) Chrome/90.0.4430.212 Safari/537.36" etag="sMlK5pRfknmsjOT-Uoli" version="14.7.0" type="github">
  <diagram id="LmNHkAMFc_MV63TZnNPk" name="Page-1">
    <mxGraphModel dx="1248" dy="686" grid="1" gridSize="10" guides="1" tooltips="1" connect="1" arrows="1" fold="1" page="1" pageScale="1" pageWidth="850" pageHeight="1100" math="0" shadow="0">
      <root>
        <mxCell id="0" />
        <mxCell id="1" parent="0" />
        <mxCell id="ApkIDRKxxLrVkBf8YNB4-31" style="edgeStyle=orthogonalEdgeStyle;rounded=0;orthogonalLoop=1;jettySize=auto;html=1;exitX=1;exitY=0.5;exitDx=0;exitDy=0;" parent="1" source="h-9vXJWDtknDthflBs6K-2" target="h-9vXJWDtknDthflBs6K-47" edge="1">
          <mxGeometry relative="1" as="geometry" />
        </mxCell>
        <mxCell id="4504I2H08Y6AS05OwjWL-17" style="edgeStyle=none;rounded=0;orthogonalLoop=1;jettySize=auto;html=1;exitX=0.5;exitY=1;exitDx=0;exitDy=0;" edge="1" parent="1" source="h-9vXJWDtknDthflBs6K-2" target="4504I2H08Y6AS05OwjWL-16">
          <mxGeometry relative="1" as="geometry" />
        </mxCell>
        <mxCell id="4504I2H08Y6AS05OwjWL-21" style="edgeStyle=none;rounded=0;orthogonalLoop=1;jettySize=auto;html=1;exitX=0.75;exitY=1;exitDx=0;exitDy=0;entryX=0.5;entryY=0;entryDx=0;entryDy=0;" edge="1" parent="1" source="h-9vXJWDtknDthflBs6K-2" target="4504I2H08Y6AS05OwjWL-20">
          <mxGeometry relative="1" as="geometry" />
        </mxCell>
        <mxCell id="h-9vXJWDtknDthflBs6K-2" value="RQ2: How do we make LA systems robust to context shifting?" style="rounded=0;whiteSpace=wrap;html=1;fillColor=#fff2cc;strokeColor=#d6b656;" parent="1" vertex="1">
          <mxGeometry x="260" y="340" width="209" height="60" as="geometry" />
        </mxCell>
        <mxCell id="h-9vXJWDtknDthflBs6K-4" value="" style="shape=link;html=1;" parent="1" edge="1">
          <mxGeometry width="50" height="50" relative="1" as="geometry">
            <mxPoint x="5" y="440" as="sourcePoint" />
            <mxPoint x="825" y="440" as="targetPoint" />
          </mxGeometry>
        </mxCell>
        <mxCell id="h-9vXJWDtknDthflBs6K-5" value="" style="shape=link;html=1;" parent="1" edge="1">
          <mxGeometry width="50" height="50" relative="1" as="geometry">
            <mxPoint x="10" y="910" as="sourcePoint" />
            <mxPoint x="830" y="910" as="targetPoint" />
          </mxGeometry>
        </mxCell>
        <mxCell id="h-9vXJWDtknDthflBs6K-6" value="" style="shape=link;html=1;" parent="1" edge="1">
          <mxGeometry width="50" height="50" relative="1" as="geometry">
            <mxPoint x="11.75" y="300" as="sourcePoint" />
            <mxPoint x="839.75" y="300" as="targetPoint" />
          </mxGeometry>
        </mxCell>
        <mxCell id="h-9vXJWDtknDthflBs6K-8" value="CONTEXT" style="text;html=1;align=center;verticalAlign=middle;resizable=0;points=[];autosize=1;" parent="1" vertex="1">
          <mxGeometry x="1" y="24" width="70" height="20" as="geometry" />
        </mxCell>
        <mxCell id="h-9vXJWDtknDthflBs6K-9" value="QUESTIONS" style="text;html=1;align=center;verticalAlign=middle;resizable=0;points=[];autosize=1;" parent="1" vertex="1">
          <mxGeometry y="310" width="90" height="20" as="geometry" />
        </mxCell>
        <mxCell id="h-9vXJWDtknDthflBs6K-10" value="CONTRIBUTIONS" style="text;html=1;align=center;verticalAlign=middle;resizable=0;points=[];autosize=1;" parent="1" vertex="1">
          <mxGeometry x="5" y="930" width="110" height="20" as="geometry" />
        </mxCell>
        <mxCell id="h-9vXJWDtknDthflBs6K-12" value="EVALUATION" style="text;html=1;align=center;verticalAlign=middle;resizable=0;points=[];autosize=1;" parent="1" vertex="1">
          <mxGeometry x="15" y="1140" width="90" height="20" as="geometry" />
        </mxCell>
        <mxCell id="h-9vXJWDtknDthflBs6K-13" value="" style="shape=link;html=1;" parent="1" edge="1">
          <mxGeometry width="50" height="50" relative="1" as="geometry">
            <mxPoint x="11.75" y="1114.58" as="sourcePoint" />
            <mxPoint x="831.75" y="1114.58" as="targetPoint" />
          </mxGeometry>
        </mxCell>
        <mxCell id="CZbT8mmbhP1wK1BWOiRL-19" style="edgeStyle=none;rounded=0;orthogonalLoop=1;jettySize=auto;html=1;exitX=1;exitY=0.5;exitDx=0;exitDy=0;entryX=0;entryY=0.5;entryDx=0;entryDy=0;" parent="1" source="h-9vXJWDtknDthflBs6K-14" target="ApkIDRKxxLrVkBf8YNB4-52" edge="1">
          <mxGeometry relative="1" as="geometry" />
        </mxCell>
        <mxCell id="h-9vXJWDtknDthflBs6K-14" value="Complexity model within the field of LA" style="rounded=1;whiteSpace=wrap;html=1;" parent="1" vertex="1">
          <mxGeometry x="161" y="975" width="130" height="50" as="geometry" />
        </mxCell>
        <mxCell id="ApkIDRKxxLrVkBf8YNB4-35" style="rounded=0;orthogonalLoop=1;jettySize=auto;html=1;exitX=1;exitY=0.5;exitDx=0;exitDy=0;entryX=0;entryY=0.5;entryDx=0;entryDy=0;" parent="1" source="h-9vXJWDtknDthflBs6K-27" target="mA0smehwSJ2bHxJVc1lk-5" edge="1">
          <mxGeometry relative="1" as="geometry" />
        </mxCell>
        <mxCell id="h-9vXJWDtknDthflBs6K-27" value="Reductionism v White Flag / Wrong v Useless" style="rounded=1;whiteSpace=wrap;html=1;fontStyle=1" parent="1" vertex="1">
          <mxGeometry x="510" y="200" width="120" height="60" as="geometry" />
        </mxCell>
        <mxCell id="ApkIDRKxxLrVkBf8YNB4-56" style="edgeStyle=none;rounded=0;orthogonalLoop=1;jettySize=auto;html=1;exitX=0.25;exitY=1;exitDx=0;exitDy=0;" parent="1" source="h-9vXJWDtknDthflBs6K-35" target="h-9vXJWDtknDthflBs6K-48" edge="1">
          <mxGeometry relative="1" as="geometry" />
        </mxCell>
        <mxCell id="ApkIDRKxxLrVkBf8YNB4-57" style="edgeStyle=none;rounded=0;orthogonalLoop=1;jettySize=auto;html=1;exitX=0.75;exitY=1;exitDx=0;exitDy=0;entryX=0.5;entryY=0;entryDx=0;entryDy=0;" parent="1" source="h-9vXJWDtknDthflBs6K-35" target="h-9vXJWDtknDthflBs6K-50" edge="1">
          <mxGeometry relative="1" as="geometry" />
        </mxCell>
        <mxCell id="h-9vXJWDtknDthflBs6K-35" value="Better questions to ask of a complex LA system" style="rounded=1;whiteSpace=wrap;html=1;" parent="1" vertex="1">
          <mxGeometry x="219" y="1080" width="150" height="70" as="geometry" />
        </mxCell>
        <mxCell id="ApkIDRKxxLrVkBf8YNB4-2" style="edgeStyle=orthogonalEdgeStyle;rounded=0;orthogonalLoop=1;jettySize=auto;html=1;exitX=0.5;exitY=1;exitDx=0;exitDy=0;curved=1;entryX=0.25;entryY=0;entryDx=0;entryDy=0;" parent="1" source="mA0smehwSJ2bHxJVc1lk-5" target="h-9vXJWDtknDthflBs6K-47" edge="1">
          <mxGeometry relative="1" as="geometry" />
        </mxCell>
        <mxCell id="h-9vXJWDtknDthflBs6K-47" value="RQ3: How can we better approach complex systems analysis in LA?" style="rounded=0;whiteSpace=wrap;html=1;fillColor=#ffe6cc;strokeColor=#d79b00;" parent="1" vertex="1">
          <mxGeometry x="527.5" y="340" width="230" height="60" as="geometry" />
        </mxCell>
        <mxCell id="h-9vXJWDtknDthflBs6K-48" value="Set of critical questions to help understand complex systems" style="rounded=1;whiteSpace=wrap;html=1;" parent="1" vertex="1">
          <mxGeometry x="90" y="1210" width="120" height="60" as="geometry" />
        </mxCell>
        <mxCell id="h-9vXJWDtknDthflBs6K-50" value="Patterns in LA...can we find invariants within LA systems (maybe NP complete, maybe hom bar codes)" style="rounded=1;whiteSpace=wrap;html=1;" parent="1" vertex="1">
          <mxGeometry x="305.25" y="1220" width="140" height="110" as="geometry" />
        </mxCell>
        <mxCell id="h-9vXJWDtknDthflBs6K-51" value="OBJECTIVES" style="text;html=1;align=center;verticalAlign=middle;resizable=0;points=[];autosize=1;" parent="1" vertex="1">
          <mxGeometry x="16.75" y="450" width="90" height="20" as="geometry" />
        </mxCell>
        <mxCell id="ApkIDRKxxLrVkBf8YNB4-26" style="rounded=0;orthogonalLoop=1;jettySize=auto;html=1;exitX=0.5;exitY=1;exitDx=0;exitDy=0;entryX=0.5;entryY=0;entryDx=0;entryDy=0;edgeStyle=orthogonalEdgeStyle;curved=1;" parent="1" source="h-9vXJWDtknDthflBs6K-56" target="h-9vXJWDtknDthflBs6K-27" edge="1">
          <mxGeometry relative="1" as="geometry" />
        </mxCell>
        <mxCell id="4504I2H08Y6AS05OwjWL-13" style="edgeStyle=none;rounded=0;orthogonalLoop=1;jettySize=auto;html=1;exitX=0;exitY=0.5;exitDx=0;exitDy=0;entryX=1;entryY=0.5;entryDx=0;entryDy=0;" edge="1" parent="1" source="h-9vXJWDtknDthflBs6K-56" target="4504I2H08Y6AS05OwjWL-4">
          <mxGeometry relative="1" as="geometry" />
        </mxCell>
        <mxCell id="h-9vXJWDtknDthflBs6K-56" value="Learning is complex" style="rounded=1;whiteSpace=wrap;html=1;fillColor=#f8cecc;strokeColor=#b85450;" parent="1" vertex="1">
          <mxGeometry x="565.25" y="60" width="125" height="65" as="geometry" />
        </mxCell>
        <mxCell id="mA0smehwSJ2bHxJVc1lk-5" value="Confusion in communication and decision making around complex LA systems" style="rounded=1;whiteSpace=wrap;html=1;" parent="1" vertex="1">
          <mxGeometry x="650" y="190" width="120" height="80" as="geometry" />
        </mxCell>
        <mxCell id="ApkIDRKxxLrVkBf8YNB4-51" style="edgeStyle=none;rounded=0;orthogonalLoop=1;jettySize=auto;html=1;exitX=0.5;exitY=1;exitDx=0;exitDy=0;entryX=0.5;entryY=0;entryDx=0;entryDy=0;" parent="1" source="sfIImLreEvvxbb7hrz45-5" target="ApkIDRKxxLrVkBf8YNB4-50" edge="1">
          <mxGeometry relative="1" as="geometry" />
        </mxCell>
        <mxCell id="sfIImLreEvvxbb7hrz45-5" value="Bridging the gap: A step between (before?) data cleaning and EDA; includes Causal DAG and other context providing data from experts" style="rounded=1;whiteSpace=wrap;html=1;" parent="1" vertex="1">
          <mxGeometry x="474" y="770" width="210" height="60" as="geometry" />
        </mxCell>
        <mxCell id="ApkIDRKxxLrVkBf8YNB4-10" value="Find ways of performing an epistemic cut (between perfect and reduced causal DAG)" style="rounded=1;whiteSpace=wrap;html=1;" parent="1" vertex="1">
          <mxGeometry x="590" y="600" width="120" height="100" as="geometry" />
        </mxCell>
        <mxCell id="CZbT8mmbhP1wK1BWOiRL-18" style="edgeStyle=none;rounded=0;orthogonalLoop=1;jettySize=auto;html=1;exitX=0.5;exitY=1;exitDx=0;exitDy=0;entryX=0.5;entryY=0;entryDx=0;entryDy=0;" parent="1" source="ApkIDRKxxLrVkBf8YNB4-18" target="CZbT8mmbhP1wK1BWOiRL-5" edge="1">
          <mxGeometry relative="1" as="geometry" />
        </mxCell>
        <mxCell id="ApkIDRKxxLrVkBf8YNB4-18" value="Case Studies: Retention / Engagement ? Belonging ? Employability" style="whiteSpace=wrap;html=1;rounded=1;glass=0;" parent="1" vertex="1">
          <mxGeometry x="99" y="760" width="120" height="80" as="geometry" />
        </mxCell>
        <mxCell id="CZbT8mmbhP1wK1BWOiRL-28" style="edgeStyle=none;rounded=0;orthogonalLoop=1;jettySize=auto;html=1;exitX=1;exitY=0.5;exitDx=0;exitDy=0;entryX=0;entryY=0.5;entryDx=0;entryDy=0;" parent="1" source="h-9vXJWDtknDthflBs6K-42" target="ApkIDRKxxLrVkBf8YNB4-10" edge="1">
          <mxGeometry relative="1" as="geometry" />
        </mxCell>
        <mxCell id="k-fhKVr42cHILvp-Tggl-5" style="edgeStyle=orthogonalEdgeStyle;curved=1;rounded=0;orthogonalLoop=1;jettySize=auto;html=1;exitX=0.25;exitY=1;exitDx=0;exitDy=0;entryX=0.75;entryY=0;entryDx=0;entryDy=0;startArrow=none;startFill=0;endArrow=classic;endFill=1;" parent="1" source="h-9vXJWDtknDthflBs6K-42" target="ApkIDRKxxLrVkBf8YNB4-18" edge="1">
          <mxGeometry relative="1" as="geometry" />
        </mxCell>
        <mxCell id="h-9vXJWDtknDthflBs6K-42" value="Define / model complexity as it arises in education" style="rounded=1;whiteSpace=wrap;html=1;" parent="1" vertex="1">
          <mxGeometry x="340" y="620" width="205" height="60" as="geometry" />
        </mxCell>
        <mxCell id="ApkIDRKxxLrVkBf8YNB4-45" value="" style="endArrow=classic;html=1;exitX=0.5;exitY=1;exitDx=0;exitDy=0;" parent="1" source="h-9vXJWDtknDthflBs6K-47" target="ApkIDRKxxLrVkBf8YNB4-10" edge="1">
          <mxGeometry width="50" height="50" relative="1" as="geometry">
            <mxPoint x="500" y="360" as="sourcePoint" />
            <mxPoint x="420" y="380" as="targetPoint" />
          </mxGeometry>
        </mxCell>
        <mxCell id="ApkIDRKxxLrVkBf8YNB4-55" style="edgeStyle=orthogonalEdgeStyle;rounded=0;orthogonalLoop=1;jettySize=auto;html=1;exitX=0.5;exitY=1;exitDx=0;exitDy=0;entryX=1;entryY=0.5;entryDx=0;entryDy=0;curved=1;" parent="1" source="ApkIDRKxxLrVkBf8YNB4-50" target="h-9vXJWDtknDthflBs6K-35" edge="1">
          <mxGeometry relative="1" as="geometry" />
        </mxCell>
        <mxCell id="ApkIDRKxxLrVkBf8YNB4-50" value="Mathematical framework for embedding &#39;context&#39; in analysis" style="whiteSpace=wrap;html=1;rounded=1;glass=0;" parent="1" vertex="1">
          <mxGeometry x="506.75" y="970" width="120" height="60" as="geometry" />
        </mxCell>
        <mxCell id="oexC_jQjlE6M2AdhIVun-2" style="edgeStyle=orthogonalEdgeStyle;rounded=0;orthogonalLoop=1;jettySize=auto;html=1;exitX=1;exitY=0.5;exitDx=0;exitDy=0;entryX=0;entryY=0.5;entryDx=0;entryDy=0;" parent="1" source="ApkIDRKxxLrVkBf8YNB4-52" target="ApkIDRKxxLrVkBf8YNB4-50" edge="1">
          <mxGeometry relative="1" as="geometry" />
        </mxCell>
        <mxCell id="ApkIDRKxxLrVkBf8YNB4-52" value="Mathematical framework for approaching complex systems" style="whiteSpace=wrap;html=1;rounded=1;glass=0;" parent="1" vertex="1">
          <mxGeometry x="326.25" y="970" width="120" height="60" as="geometry" />
        </mxCell>
        <mxCell id="ApkIDRKxxLrVkBf8YNB4-59" value="Causal model embedded in CSU retention work" style="whiteSpace=wrap;html=1;rounded=1;glass=0;" parent="1" vertex="1">
          <mxGeometry x="519" y="1200" width="120" height="60" as="geometry" />
        </mxCell>
        <mxCell id="oexC_jQjlE6M2AdhIVun-1" style="edgeStyle=orthogonalEdgeStyle;rounded=0;orthogonalLoop=1;jettySize=auto;html=1;exitX=1;exitY=0.5;exitDx=0;exitDy=0;entryX=0;entryY=0.5;entryDx=0;entryDy=0;" parent="1" source="CZbT8mmbhP1wK1BWOiRL-3" target="h-9vXJWDtknDthflBs6K-2" edge="1">
          <mxGeometry relative="1" as="geometry" />
        </mxCell>
        <mxCell id="CZbT8mmbhP1wK1BWOiRL-3" value="RQ1: What is the case for using causality to understand learning?" style="whiteSpace=wrap;html=1;fillColor=#f5f5f5;strokeColor=#666666;fontColor=#333333;" parent="1" vertex="1">
          <mxGeometry x="10" y="340" width="190" height="60" as="geometry" />
        </mxCell>
        <mxCell id="CZbT8mmbhP1wK1BWOiRL-20" style="edgeStyle=none;rounded=0;orthogonalLoop=1;jettySize=auto;html=1;exitX=1;exitY=0.5;exitDx=0;exitDy=0;entryX=0;entryY=0.5;entryDx=0;entryDy=0;" parent="1" source="CZbT8mmbhP1wK1BWOiRL-5" target="h-9vXJWDtknDthflBs6K-14" edge="1">
          <mxGeometry relative="1" as="geometry">
            <mxPoint x="125" y="1000" as="sourcePoint" />
          </mxGeometry>
        </mxCell>
        <mxCell id="CZbT8mmbhP1wK1BWOiRL-5" value="Defining the Theory - Practitioner gap" style="whiteSpace=wrap;html=1;rounded=1;" parent="1" vertex="1">
          <mxGeometry x="11.75" y="970" width="120" height="60" as="geometry" />
        </mxCell>
        <mxCell id="CZbT8mmbhP1wK1BWOiRL-7" value="Analytic / Practitioner gap" style="whiteSpace=wrap;html=1;rounded=1;" parent="1" vertex="1">
          <mxGeometry x="136.75" y="500" width="120" height="60" as="geometry" />
        </mxCell>
        <mxCell id="CZbT8mmbhP1wK1BWOiRL-8" style="edgeStyle=none;rounded=0;orthogonalLoop=1;jettySize=auto;html=1;entryX=0.5;entryY=0;entryDx=0;entryDy=0;exitX=0.75;exitY=1;exitDx=0;exitDy=0;" parent="1" source="CZbT8mmbhP1wK1BWOiRL-3" target="CZbT8mmbhP1wK1BWOiRL-7" edge="1">
          <mxGeometry relative="1" as="geometry">
            <mxPoint x="70" y="350" as="sourcePoint" />
            <mxPoint x="70" y="670" as="targetPoint" />
          </mxGeometry>
        </mxCell>
        <mxCell id="CZbT8mmbhP1wK1BWOiRL-17" style="edgeStyle=none;rounded=0;orthogonalLoop=1;jettySize=auto;html=1;exitX=0.5;exitY=1;exitDx=0;exitDy=0;entryX=0.5;entryY=0;entryDx=0;entryDy=0;" parent="1" source="CZbT8mmbhP1wK1BWOiRL-9" target="ApkIDRKxxLrVkBf8YNB4-18" edge="1">
          <mxGeometry relative="1" as="geometry" />
        </mxCell>
        <mxCell id="CZbT8mmbhP1wK1BWOiRL-9" value="Classify where T-P gap is occurring. When is it because of complexity?" style="whiteSpace=wrap;html=1;rounded=1;" parent="1" vertex="1">
          <mxGeometry x="106.75" y="610" width="120" height="60" as="geometry" />
        </mxCell>
        <mxCell id="CZbT8mmbhP1wK1BWOiRL-10" style="edgeStyle=none;rounded=0;orthogonalLoop=1;jettySize=auto;html=1;exitX=0.5;exitY=1;exitDx=0;exitDy=0;entryX=0.5;entryY=0;entryDx=0;entryDy=0;" parent="1" source="CZbT8mmbhP1wK1BWOiRL-7" target="CZbT8mmbhP1wK1BWOiRL-9" edge="1">
          <mxGeometry relative="1" as="geometry">
            <mxPoint x="57" y="580" as="sourcePoint" />
            <mxPoint x="77" y="750" as="targetPoint" />
          </mxGeometry>
        </mxCell>
        <mxCell id="CZbT8mmbhP1wK1BWOiRL-15" value="METHODS" style="text;html=1;align=center;verticalAlign=middle;resizable=0;points=[];autosize=1;" parent="1" vertex="1">
          <mxGeometry x="21.75" y="740" width="80" height="20" as="geometry" />
        </mxCell>
        <mxCell id="CZbT8mmbhP1wK1BWOiRL-16" value="" style="shape=link;html=1;" parent="1" edge="1">
          <mxGeometry width="50" height="50" relative="1" as="geometry">
            <mxPoint x="10" y="720" as="sourcePoint" />
            <mxPoint x="830" y="720" as="targetPoint" />
          </mxGeometry>
        </mxCell>
        <mxCell id="4504I2H08Y6AS05OwjWL-5" style="rounded=0;orthogonalLoop=1;jettySize=auto;html=1;exitX=0;exitY=0.5;exitDx=0;exitDy=0;entryX=1;entryY=0.5;entryDx=0;entryDy=0;" edge="1" parent="1" source="CZbT8mmbhP1wK1BWOiRL-22" target="4504I2H08Y6AS05OwjWL-1">
          <mxGeometry relative="1" as="geometry" />
        </mxCell>
        <mxCell id="4504I2H08Y6AS05OwjWL-7" style="edgeStyle=none;rounded=0;orthogonalLoop=1;jettySize=auto;html=1;exitX=0.25;exitY=1;exitDx=0;exitDy=0;entryX=0.5;entryY=0;entryDx=0;entryDy=0;" edge="1" parent="1" source="CZbT8mmbhP1wK1BWOiRL-22" target="4504I2H08Y6AS05OwjWL-6">
          <mxGeometry relative="1" as="geometry" />
        </mxCell>
        <mxCell id="CZbT8mmbhP1wK1BWOiRL-22" value="Purpose of analysing learning?" style="whiteSpace=wrap;html=1;rounded=1;" parent="1" vertex="1">
          <mxGeometry x="161.75" y="70" width="120" height="40" as="geometry" />
        </mxCell>
        <mxCell id="oexC_jQjlE6M2AdhIVun-3" style="edgeStyle=orthogonalEdgeStyle;rounded=0;orthogonalLoop=1;jettySize=auto;html=1;exitX=0.5;exitY=1;exitDx=0;exitDy=0;entryX=0.5;entryY=0;entryDx=0;entryDy=0;curved=1;" parent="1" source="CZbT8mmbhP1wK1BWOiRL-25" target="ApkIDRKxxLrVkBf8YNB4-52" edge="1">
          <mxGeometry relative="1" as="geometry" />
        </mxCell>
        <mxCell id="CZbT8mmbhP1wK1BWOiRL-25" value="Developing causal models, then diagnosing epistemic cuts in a complex system" style="whiteSpace=wrap;html=1;rounded=1;" parent="1" vertex="1">
          <mxGeometry x="325.25" y="820" width="120" height="60" as="geometry" />
        </mxCell>
        <mxCell id="oexC_jQjlE6M2AdhIVun-4" style="rounded=0;orthogonalLoop=1;jettySize=auto;html=1;exitX=1;exitY=0.5;exitDx=0;exitDy=0;entryX=0.5;entryY=0;entryDx=0;entryDy=0;edgeStyle=orthogonalEdgeStyle;curved=1;" parent="1" source="h-9vXJWDtknDthflBs6K-56" target="mA0smehwSJ2bHxJVc1lk-5" edge="1">
          <mxGeometry relative="1" as="geometry" />
        </mxCell>
        <mxCell id="k-fhKVr42cHILvp-Tggl-3" style="edgeStyle=orthogonalEdgeStyle;rounded=0;orthogonalLoop=1;jettySize=auto;html=1;exitX=1;exitY=0.5;exitDx=0;exitDy=0;entryX=0;entryY=0.5;entryDx=0;entryDy=0;startArrow=none;startFill=0;endArrow=classic;endFill=1;curved=1;" parent="1" source="k-fhKVr42cHILvp-Tggl-1" target="k-fhKVr42cHILvp-Tggl-2" edge="1">
          <mxGeometry relative="1" as="geometry" />
        </mxCell>
        <mxCell id="k-fhKVr42cHILvp-Tggl-1" value="Catalogue methods for dealing with complexity" style="rounded=1;whiteSpace=wrap;html=1;" parent="1" vertex="1">
          <mxGeometry x="580" y="490" width="120" height="60" as="geometry" />
        </mxCell>
        <mxCell id="k-fhKVr42cHILvp-Tggl-2" value="e.g. Rosen, Causal, Epistemic cut...&amp;nbsp;" style="rounded=1;whiteSpace=wrap;html=1;" parent="1" vertex="1">
          <mxGeometry x="730" y="510" width="120" height="60" as="geometry" />
        </mxCell>
        <mxCell id="k-fhKVr42cHILvp-Tggl-6" value="Diagram interrogation" style="whiteSpace=wrap;html=1;" parent="1" vertex="1">
          <mxGeometry x="700" y="750" width="120" height="60" as="geometry" />
        </mxCell>
        <mxCell id="4504I2H08Y6AS05OwjWL-10" style="edgeStyle=none;rounded=0;orthogonalLoop=1;jettySize=auto;html=1;exitX=0.5;exitY=1;exitDx=0;exitDy=0;entryX=0.25;entryY=0;entryDx=0;entryDy=0;" edge="1" parent="1" source="4504I2H08Y6AS05OwjWL-1" target="4504I2H08Y6AS05OwjWL-9">
          <mxGeometry relative="1" as="geometry" />
        </mxCell>
        <mxCell id="4504I2H08Y6AS05OwjWL-1" value="What works? (in education...)" style="rounded=1;whiteSpace=wrap;html=1;" vertex="1" parent="1">
          <mxGeometry x="16.75" y="60" width="120" height="60" as="geometry" />
        </mxCell>
        <mxCell id="4504I2H08Y6AS05OwjWL-2" value="Complexity / Compositionality vs Emergence" style="rounded=1;whiteSpace=wrap;html=1;" vertex="1" parent="1">
          <mxGeometry x="880" y="80" width="120" height="60" as="geometry" />
        </mxCell>
        <mxCell id="4504I2H08Y6AS05OwjWL-3" value="Causality" style="rounded=1;whiteSpace=wrap;html=1;" vertex="1" parent="1">
          <mxGeometry x="880" y="180" width="120" height="60" as="geometry" />
        </mxCell>
        <mxCell id="4504I2H08Y6AS05OwjWL-19" style="edgeStyle=none;rounded=0;orthogonalLoop=1;jettySize=auto;html=1;exitX=0.5;exitY=1;exitDx=0;exitDy=0;entryX=0.25;entryY=0;entryDx=0;entryDy=0;" edge="1" parent="1" source="4504I2H08Y6AS05OwjWL-4" target="h-9vXJWDtknDthflBs6K-2">
          <mxGeometry relative="1" as="geometry" />
        </mxCell>
        <mxCell id="4504I2H08Y6AS05OwjWL-4" value="Context sensitivity" style="rounded=1;whiteSpace=wrap;html=1;" vertex="1" parent="1">
          <mxGeometry x="281.75" y="180" width="120" height="60" as="geometry" />
        </mxCell>
        <mxCell id="4504I2H08Y6AS05OwjWL-6" value="Decision making;&lt;br&gt;Interventions" style="rounded=1;whiteSpace=wrap;html=1;" vertex="1" parent="1">
          <mxGeometry x="131.75" y="130" width="120" height="60" as="geometry" />
        </mxCell>
        <mxCell id="4504I2H08Y6AS05OwjWL-15" style="edgeStyle=none;rounded=0;orthogonalLoop=1;jettySize=auto;html=1;exitX=0.5;exitY=1;exitDx=0;exitDy=0;entryX=0.5;entryY=0;entryDx=0;entryDy=0;" edge="1" parent="1" source="4504I2H08Y6AS05OwjWL-9" target="CZbT8mmbhP1wK1BWOiRL-3">
          <mxGeometry relative="1" as="geometry" />
        </mxCell>
        <mxCell id="4504I2H08Y6AS05OwjWL-9" value="Require &lt;i&gt;cause&lt;/i&gt;" style="rounded=1;whiteSpace=wrap;html=1;" vertex="1" parent="1">
          <mxGeometry x="41" y="220" width="120" height="60" as="geometry" />
        </mxCell>
        <mxCell id="4504I2H08Y6AS05OwjWL-11" value="" style="endArrow=classic;html=1;exitX=0.25;exitY=1;exitDx=0;exitDy=0;entryX=0.5;entryY=0;entryDx=0;entryDy=0;" edge="1" parent="1" source="4504I2H08Y6AS05OwjWL-6" target="4504I2H08Y6AS05OwjWL-9">
          <mxGeometry width="50" height="50" relative="1" as="geometry">
            <mxPoint x="390" y="140" as="sourcePoint" />
            <mxPoint x="440" y="90" as="targetPoint" />
          </mxGeometry>
        </mxCell>
        <mxCell id="4504I2H08Y6AS05OwjWL-12" value="Outline and examples of using causal models in LA. Simulated and real?" style="rounded=1;whiteSpace=wrap;html=1;" vertex="1" parent="1">
          <mxGeometry x="10" y="500" width="120" height="60" as="geometry" />
        </mxCell>
        <mxCell id="4504I2H08Y6AS05OwjWL-14" value="" style="endArrow=classic;html=1;exitX=0.5;exitY=1;exitDx=0;exitDy=0;" edge="1" parent="1" source="CZbT8mmbhP1wK1BWOiRL-3" target="4504I2H08Y6AS05OwjWL-12">
          <mxGeometry width="50" height="50" relative="1" as="geometry">
            <mxPoint x="390" y="570" as="sourcePoint" />
            <mxPoint x="440" y="520" as="targetPoint" />
          </mxGeometry>
        </mxCell>
        <mxCell id="4504I2H08Y6AS05OwjWL-16" value="Including experts, context knowledge in analysis" style="rounded=1;whiteSpace=wrap;html=1;" vertex="1" parent="1">
          <mxGeometry x="270" y="470" width="120" height="60" as="geometry" />
        </mxCell>
        <mxCell id="4504I2H08Y6AS05OwjWL-20" value="Communicate uncertainty and assumptions to practitioners" style="rounded=1;whiteSpace=wrap;html=1;" vertex="1" parent="1">
          <mxGeometry x="400" y="470" width="120" height="60" as="geometry" />
        </mxCell>
      </root>
    </mxGraphModel>
  </diagram>
</mxfile>
